<svg width="216" height="70" viewBox="0 0 216 70" fill="none" xmlns="http://www.w3.org/2000/svg">
<path d="M12.4424 49.4033L12.2183 49.177L11.9943 48.9525L25.7984 35.0088L11.9943 21.0651L12.2183 20.8388L12.4424 20.6142C12.9484 20.1025 13.5493 19.6965 14.2107 19.4196C14.8722 19.1426 15.5812 19 16.2972 19C17.0132 19 17.7223 19.1426 18.3837 19.4196C19.0451 19.6965 19.646 20.1025 20.1521 20.6142L34.3938 35L20.1521 49.3858C19.646 49.8975 19.0451 50.3035 18.3837 50.5805C17.7223 50.8574 17.0132 51 16.2972 51C15.5812 51 14.8722 50.8574 14.2107 50.5805C13.5493 50.3035 12.9484 49.8975 12.4424 49.3858V49.4033Z" fill="#006EB3"/>
<path d="M7.37962 44.7841L5.21209 42.5964L12.7238 35.0088L5.21209 27.4211L7.37962 25.2317C7.94601 24.6597 8.71412 24.3384 9.51501 24.3384C10.3159 24.3384 11.084 24.6597 11.6504 25.2317L21.3279 35.0158L11.6487 44.7841C11.3685 45.0677 11.0356 45.2927 10.6692 45.4463C10.3028 45.5998 9.90997 45.6788 9.51328 45.6788C9.11658 45.6788 8.72378 45.5998 8.35736 45.4463C7.99094 45.2927 7.6581 45.0677 7.37788 44.7841H7.37962Z" fill="#006EB3"/>
<path d="M8.63184 35.0088L6.02664 32.3562L3.42144 29.7246L1.27128 31.8965C0.457279 32.719 0 33.8344 0 34.9974C0 36.1603 0.457279 37.2757 1.27128 38.0982L3.42144 40.2719L8.63184 35.0088Z" fill="#006EB3"/>
<path d="M53.6393 32.4193C53.3411 32.0438 52.9565 31.7475 52.5191 31.5562C52.0673 31.3423 51.5748 31.2304 51.0758 31.2281C50.5948 31.2206 50.1188 31.3276 49.6864 31.5404C49.2812 31.7439 48.9208 32.0279 48.6269 32.3755C48.3253 32.7317 48.09 33.14 47.9322 33.5807C47.7636 34.0478 47.6789 34.5415 47.6821 35.0386C47.6816 35.5349 47.7638 36.0277 47.9252 36.4965C48.0759 36.9405 48.312 37.3501 48.62 37.7017C48.9225 38.0488 49.2941 38.3274 49.7107 38.5193C50.1587 38.7244 50.6464 38.8263 51.1383 38.8175C51.6378 38.8157 52.1325 38.7199 52.5972 38.535C53.0482 38.3672 53.449 38.0851 53.7609 37.7158L56.4356 41.0192C55.7616 41.6564 54.9569 42.1356 54.0787 42.4227C53.0931 42.765 52.0572 42.9364 51.015 42.9297C49.9112 42.9389 48.8139 42.7573 47.7707 42.3929C46.802 42.0579 45.9114 41.5266 45.1533 40.8315C44.4053 40.1347 43.8111 39.2865 43.4096 38.3421C42.5597 36.2337 42.5597 33.8733 43.4096 31.765C43.8136 30.8217 44.4095 29.9747 45.1585 29.279C45.9183 28.582 46.8081 28.0452 47.7759 27.7001C48.8065 27.3267 49.8941 27.1391 50.989 27.1457C51.5174 27.1456 52.0448 27.195 52.5642 27.2931C53.074 27.3907 53.5761 27.5255 54.0666 27.6966C54.5293 27.8559 54.9736 28.0653 55.3917 28.3211C55.7705 28.5502 56.1204 28.8247 56.4338 29.1387L53.6393 32.4193Z" fill="#006EB3"/>
<path fill-rule="evenodd" clip-rule="evenodd" d="M72.5063 38.2561C72.9482 37.2204 73.1689 36.1023 73.1542 34.9747C73.1699 33.8515 72.949 32.7376 72.5063 31.707C72.0965 30.7666 71.4939 29.9247 70.7382 29.2369C69.9814 28.5562 69.1007 28.0306 68.1452 27.6895C66.1084 26.9761 63.8931 26.9761 61.8562 27.6895C60.8986 28.026 60.0171 28.5521 59.2632 29.2369C58.5155 29.9283 57.9186 30.7696 57.5108 31.707C57.068 32.7354 56.8471 33.8472 56.8629 34.9684C56.8464 36.0982 57.0672 37.2188 57.5108 38.2561C57.9178 39.2027 58.5144 40.0539 59.2632 40.7561C60.0175 41.4514 60.8981 41.9924 61.8562 42.349C63.8863 43.1022 66.1152 43.1022 68.1452 42.349C69.1012 41.9878 69.981 41.4474 70.7382 40.7561C71.4949 40.0575 72.0974 39.2056 72.5063 38.2561ZM68.2633 33.5754C68.4205 34.0263 68.5004 34.5009 68.4995 34.9789V34.9702C68.4994 35.4463 68.425 35.9193 68.2789 36.3719C68.1337 36.8187 67.9088 37.2348 67.6155 37.6C67.1321 38.1931 66.4637 38.6029 65.7197 38.7623C64.9757 38.9217 64.2001 38.8211 63.5201 38.4771C63.0984 38.268 62.7268 37.9687 62.4311 37.6C62.137 37.2353 61.9121 36.819 61.7677 36.3719C61.4735 35.4634 61.4735 34.4839 61.7677 33.5754C61.9057 33.1357 62.1256 32.7266 62.4155 32.3702C62.7111 32.0143 63.0774 31.7251 63.4906 31.5211C63.9627 31.3055 64.4748 31.194 64.9929 31.194C65.511 31.194 66.0231 31.3055 66.4952 31.5211C66.9113 31.7278 67.2821 32.0165 67.5859 32.3702C67.8857 32.7247 68.1156 33.1338 68.2633 33.5754Z" fill="#006EB3"/>
<path d="M82.6248 33.1035H75.1427V36.9719H82.6248V33.1035Z" fill="#006EB3"/>
<path d="M170.47 36.9351V31.2579H173.923V27.6282H170.476V23.73H165.732V27.6282H163.405V31.2579H165.762V37.5228C165.754 38.2526 165.843 38.9802 166.028 39.6859C166.188 40.3018 166.485 40.8728 166.896 41.3561C167.329 41.85 167.88 42.2228 168.497 42.4385C169.294 42.7083 170.132 42.8347 170.972 42.8122C171.486 42.8113 171.998 42.7667 172.504 42.6788C172.934 42.6091 173.357 42.5047 173.77 42.3666L173.711 38.7947C173.499 38.882 173.277 38.941 173.05 38.9701C172.801 39.0089 172.549 39.0288 172.298 39.0298C171.61 39.0298 171.132 38.8438 170.868 38.5035C170.604 38.1631 170.47 37.6368 170.47 36.9351Z" fill="#006EB3"/>
<path fill-rule="evenodd" clip-rule="evenodd" d="M149.007 29.6527C149.871 28.8185 150.9 28.1792 152.027 27.7773C153.152 27.3626 154.34 27.1489 155.537 27.1457C156.776 27.1457 157.822 27.2995 158.676 27.6071C159.486 27.8823 160.207 28.3761 160.76 29.0352C161.324 29.7503 161.722 30.5843 161.924 31.4755C162.187 32.6215 162.31 33.7956 162.292 34.9719V42.4402H157.865V40.8613H157.778C157.373 41.5034 156.781 42.0029 156.083 42.2911C155.307 42.6322 154.469 42.8043 153.624 42.7964C153.007 42.7931 152.393 42.713 151.796 42.5578C151.181 42.406 150.597 42.1439 150.073 41.7841C149.542 41.4156 149.103 40.9265 148.792 40.3561C148.439 39.6785 148.266 38.9197 148.292 38.1543C148.292 37.083 148.581 36.2199 149.16 35.5649C149.775 34.8854 150.543 34.365 151.399 34.0474C152.38 33.6749 153.405 33.4348 154.448 33.3333C155.535 33.217 156.626 33.1584 157.719 33.1579V32.9193C157.719 32.186 157.462 31.6456 156.953 31.2983C156.391 30.9342 155.734 30.7507 155.067 30.772C154.38 30.7723 153.701 30.9244 153.078 31.2176C152.482 31.4885 151.931 31.85 151.444 32.2895L149.007 29.6527ZM157.865 35.9912H157.246C156.717 35.9912 156.18 36.0158 155.642 36.0649C155.152 36.1042 154.667 36.1989 154.198 36.3473C153.809 36.4678 153.453 36.6767 153.156 36.9579C153.019 37.0948 152.912 37.2592 152.841 37.4404C152.77 37.6216 152.737 37.8158 152.745 38.0105C152.737 38.2624 152.803 38.5109 152.936 38.7245C153.06 38.9189 153.226 39.0821 153.422 39.2017C153.632 39.3251 153.861 39.4106 154.099 39.4543C154.342 39.5021 154.589 39.5268 154.836 39.528C155.819 39.528 156.571 39.2555 157.094 38.7105C157.616 38.1654 157.873 37.4274 157.865 36.4965V35.9912Z" fill="#006EB3"/>
<path fill-rule="evenodd" clip-rule="evenodd" d="M136.177 35.2158V35.8105C136.178 35.9992 136.168 36.1878 136.148 36.3754H125.513C125.546 36.7766 125.673 37.1642 125.882 37.507C126.09 37.8473 126.36 38.1449 126.677 38.3842C127.006 38.6363 127.374 38.8325 127.766 38.9649C128.169 39.1032 128.592 39.1732 129.018 39.1719C129.692 39.194 130.361 39.0457 130.963 38.7403C131.473 38.4719 131.916 38.0904 132.259 37.6245L135.618 39.7771C134.933 40.7878 133.992 41.5943 132.893 42.1122C131.659 42.6801 130.315 42.9601 128.959 42.9315C127.895 42.9364 126.838 42.7585 125.833 42.4052C124.883 42.0767 124.007 41.5609 123.256 40.8876C122.507 40.2059 121.914 39.3678 121.519 38.4315C121.081 37.377 120.865 36.2417 120.887 35.0982C120.87 33.9708 121.08 32.8517 121.505 31.8088C121.889 30.8681 122.461 30.0172 123.184 29.3088C123.906 28.6156 124.756 28.0746 125.687 27.7176C126.685 27.334 127.745 27.1424 128.813 27.1527C129.831 27.1406 130.842 27.3276 131.79 27.7036C132.672 28.0552 133.467 28.5985 134.117 29.2948C134.787 30.0255 135.303 30.8862 135.634 31.8246C136.012 32.9135 136.196 34.0618 136.177 35.2158ZM131.729 33.3421C131.742 32.6123 131.484 31.9041 131.007 31.3562C130.526 30.8018 129.804 30.5246 128.841 30.5246C128.399 30.519 127.96 30.5945 127.545 30.7474C127.169 30.8875 126.819 31.0935 126.514 31.3562C126.223 31.6111 125.983 31.9195 125.807 32.2649C125.634 32.6017 125.534 32.9719 125.513 33.3509L131.729 33.3421Z" fill="#006EB3"/>
<path fill-rule="evenodd" clip-rule="evenodd" d="M100.469 38.2561C100.911 37.2204 101.131 36.1023 101.117 34.9747C101.132 33.8515 100.911 32.7376 100.469 31.707C100.059 30.7666 99.4563 29.9247 98.7006 29.2369C97.9438 28.5562 97.0631 28.0306 96.1076 27.6895C94.0707 26.9761 91.8554 26.9761 89.8186 27.6895C88.861 28.026 87.9794 28.5521 87.2256 29.2369C86.4779 29.9283 85.881 30.7696 85.4731 31.707C85.0303 32.7354 84.8095 33.8472 84.8253 34.9684C84.8088 36.0982 85.0296 37.2188 85.4731 38.2561C85.8801 39.2027 86.4768 40.0539 87.2256 40.7561C87.9798 41.4514 88.8604 41.9924 89.8186 42.349C91.8486 43.1022 94.0776 43.1022 96.1076 42.349C97.0636 41.9878 97.9434 41.4474 98.7006 40.7561C99.4573 40.0575 100.06 39.2056 100.469 38.2561ZM96.2257 33.5754C96.3829 34.0263 96.4628 34.5009 96.4619 34.9789V34.9702C96.4618 35.4462 96.3874 35.9193 96.2413 36.3719C96.0961 36.8187 95.8712 37.2348 95.5779 37.6C95.0945 38.1931 94.4261 38.6029 93.6821 38.7623C92.9381 38.9217 92.1625 38.8211 91.4825 38.4771C91.0608 38.268 90.6892 37.9687 90.3935 37.6C90.0994 37.2353 89.8745 36.819 89.73 36.3719C89.4359 35.4634 89.4359 34.4839 89.73 33.5754C89.8681 33.1357 90.088 32.7266 90.3779 32.3702C90.6735 32.0143 91.0397 31.7251 91.4529 31.5211C91.925 31.3055 92.4372 31.194 92.9553 31.194C93.4734 31.194 93.9855 31.3055 94.4576 31.5211C94.8736 31.7278 95.2445 32.0165 95.5483 32.3702C95.8481 32.7247 96.078 33.1338 96.2257 33.5754Z" fill="#006EB3"/>
<path fill-rule="evenodd" clip-rule="evenodd" d="M118.835 37.9701C119.152 37.0084 119.311 36.0012 119.308 34.9877L119.309 34.9789C119.313 33.9713 119.149 32.9702 118.823 32.0176C118.516 31.1099 118.045 30.2676 117.434 29.5334C116.83 28.816 116.082 28.2375 115.238 27.8369C114.335 27.4113 113.347 27.1978 112.35 27.2124C111.371 27.188 110.402 27.4182 109.537 27.8808C108.814 28.2668 108.177 28.7989 107.666 29.4439H107.579V27.6282H102.982V49.5823H107.81V40.8104H107.869C108.353 41.4731 109.005 41.9923 109.755 42.3139C110.56 42.6867 111.434 42.88 112.319 42.8806C113.34 42.8991 114.352 42.675 115.271 42.2262C116.114 41.8056 116.861 41.2123 117.465 40.4841C118.075 39.7412 118.54 38.8881 118.835 37.9701ZM114.398 33.5755C114.545 34.0284 114.619 34.5022 114.618 34.9789V34.9877C114.618 35.4678 114.544 35.9448 114.398 36.4017C114.259 36.8481 114.039 37.2645 113.75 37.6298C113.458 37.9934 113.091 38.288 112.675 38.4929C112.207 38.7202 111.692 38.8326 111.173 38.821C110.663 38.8306 110.158 38.7182 109.7 38.4929C109.278 38.2835 108.902 37.9899 108.595 37.6298C108.287 37.2675 108.048 36.8513 107.888 36.4017C107.64 35.7293 107.575 35.0021 107.699 34.2956C107.824 33.5892 108.133 32.9292 108.595 32.3842C108.902 32.0247 109.278 31.7311 109.7 31.5211C110.159 31.2972 110.663 31.1855 111.173 31.1948C111.692 31.1836 112.206 31.2954 112.675 31.5211C113.088 31.7251 113.454 32.0143 113.75 32.3702C114.04 32.7267 114.26 33.1357 114.398 33.5755Z" fill="#006EB3"/>
<path d="M146.923 31.5316C147.138 31.5515 147.351 31.5897 147.56 31.6456L147.764 27.3316C147.615 27.2852 147.462 27.2552 147.307 27.2422C147.116 27.2215 146.924 27.2116 146.732 27.2123C145.882 27.1959 145.048 27.4466 144.345 27.9299C143.666 28.401 143.118 29.0408 142.755 29.7878H142.699V27.6457H138.044V42.4472H142.876V34.8508C142.884 34.498 142.943 34.1482 143.05 33.8123C143.17 33.4126 143.364 33.0399 143.623 32.714C143.915 32.3567 144.276 32.0635 144.684 31.8526C145.193 31.6022 145.755 31.4817 146.32 31.5018C146.515 31.5018 146.718 31.5123 146.923 31.5316Z" fill="#006EB3"/>
<path fill-rule="evenodd" clip-rule="evenodd" d="M191.217 34.9747C191.231 36.1023 191.011 37.2204 190.569 38.2561C190.16 39.2056 189.557 40.0575 188.801 40.7561C188.043 41.447 187.163 41.9874 186.208 42.349C184.178 43.1022 181.949 43.1022 179.919 42.349C178.961 41.9924 178.08 41.4514 177.326 40.7561C176.581 40.0563 175.986 39.2088 175.58 38.2666C175.137 37.2293 174.916 36.1088 174.932 34.9789C174.915 33.8541 175.136 32.7386 175.58 31.707C175.988 30.7696 176.585 29.9283 177.333 29.2369C178.086 28.5521 178.968 28.026 179.926 27.6895C181.962 26.9761 184.178 26.9761 186.215 27.6895C187.17 28.0309 188.051 28.5564 188.808 29.2369C189.561 29.9254 190.161 30.7673 190.569 31.707C191.012 32.7376 191.232 33.8515 191.217 34.9747ZM186.562 34.9709C186.562 34.4956 186.482 34.0237 186.326 33.5754C186.178 33.1338 185.948 32.7247 185.648 32.3702C185.345 32.0165 184.974 31.7278 184.558 31.5211C184.086 31.3055 183.573 31.194 183.055 31.194C182.537 31.194 182.025 31.3055 181.553 31.5211C181.14 31.7251 180.774 32.0143 180.478 32.3702C180.188 32.7266 179.968 33.1357 179.83 33.5754C179.536 34.4839 179.536 35.4634 179.83 36.3719C179.975 36.819 180.199 37.2353 180.494 37.6C180.789 37.9687 181.161 38.268 181.583 38.4771C182.055 38.693 182.567 38.8046 183.086 38.8046C183.604 38.8046 184.117 38.693 184.589 38.4771C185.01 38.2675 185.382 37.9683 185.678 37.6C185.972 37.2353 186.197 36.819 186.341 36.3719C186.488 35.9197 186.563 35.4468 186.562 34.9709Z" fill="#006EB3"/>
<path d="M201.844 31.5263C202.058 31.5483 202.27 31.5882 202.478 31.6456L202.688 27.3316C202.54 27.2852 202.386 27.2552 202.231 27.2422C202.04 27.2215 201.848 27.2116 201.656 27.2123C200.807 27.1959 199.973 27.4466 199.27 27.9299C198.591 28.401 198.043 29.0408 197.679 29.7878H197.62V27.6457H192.965V42.442H197.797V34.8456C197.805 34.4928 197.864 34.1429 197.971 33.807C198.091 33.4074 198.286 33.0346 198.544 32.7088C198.836 32.3514 199.197 32.0582 199.605 31.8474C200.114 31.5968 200.676 31.4763 201.241 31.4965C201.436 31.4965 201.637 31.507 201.844 31.5263Z" fill="#006EB3"/>
<path d="M213.05 32.0035C212.639 31.6145 212.17 31.2931 211.66 31.0509C211.137 30.7942 210.563 30.6616 209.981 30.6632C209.549 30.6591 209.122 30.7507 208.729 30.9316C208.55 31.0063 208.399 31.1353 208.296 31.3006C208.194 31.466 208.145 31.6595 208.156 31.8544C208.156 32.2696 208.366 32.5673 208.788 32.7474C209.455 32.9972 210.139 33.196 210.835 33.3421C211.403 33.4666 211.96 33.6356 212.501 33.8474C213.046 34.0576 213.557 34.3485 214.017 34.7105C214.467 35.0663 214.838 35.5126 215.108 36.021C215.397 36.5908 215.541 37.2246 215.527 37.8648C215.56 38.6407 215.391 39.4119 215.037 40.1012C214.683 40.7905 214.156 41.3738 213.508 41.7929C212.891 42.1981 212.208 42.4903 211.49 42.656C210.757 42.8335 210.006 42.9236 209.252 42.9244C208.055 42.9249 206.866 42.7288 205.731 42.3437C204.657 42.002 203.674 41.4169 202.858 40.6332L205.569 37.7456C206.023 38.2382 206.562 38.6421 207.16 38.9368C207.782 39.2523 208.468 39.4152 209.163 39.4122C209.568 39.4101 209.967 39.3134 210.328 39.1298C210.513 39.0421 210.666 38.8997 210.769 38.7218C210.871 38.5438 210.917 38.3385 210.901 38.1333C210.901 37.6771 210.666 37.3397 210.195 37.121C209.48 36.8259 208.741 36.5969 207.985 36.4368C207.464 36.3146 206.953 36.1558 206.454 35.9614C205.956 35.7708 205.494 35.4994 205.083 35.1579C204.674 34.8121 204.339 34.3867 204.097 33.907C203.828 33.3518 203.696 32.739 203.713 32.1211C203.688 31.3231 203.882 30.5337 204.274 29.8404C204.636 29.2272 205.129 28.7033 205.717 28.3071C206.317 27.9055 206.979 27.6089 207.676 27.4299C208.373 27.2437 209.09 27.1487 209.811 27.1474C210.907 27.1484 211.997 27.3261 213.038 27.6738C214.031 27.9864 214.942 28.5199 215.704 29.2351L213.05 32.0035Z" fill="#006EB3"/>
</svg>
