<?xml version="1.0" encoding="utf-8"?>
<!-- Generator: Adobe Illustrator 25.2.3, SVG Export Plug-In . SVG Version: 6.00 Build 0)  -->
<svg version="1.1" id="Layer_1" xmlns="http://www.w3.org/2000/svg" xmlns:xlink="http://www.w3.org/1999/xlink" x="0px" y="0px"
	 viewBox="0 0 169 38" style="enable-background:new 0 0 169 38;" xml:space="preserve">
<style type="text/css">
	.st0{fill:#FFFFFF;}
</style>
<g>
	<path class="st0" d="M78.6,37.4v-8.6c0-1.6-0.2-3-1.9-3c-1.4,0-2.8,0.8-3.7,1.4v10.2h-3.1V23.5l2.4,0l0.2,1.5l0.1,0
		c1.5-1,3.1-1.8,5-1.8c2.9,0,4,1.8,4,4.9v9.2H78.6z"/>
	<polygon class="st0" points="157.8,37.4 157.8,17.1 160.9,17.1 160.9,21.5 160.9,37.4 	"/>
	<path class="st0" d="M38.3,36.5c-1.5,0.8-3.2,1.3-5.2,1.3c-5,0-6.6-3.2-6.6-7.3c0-4.9,2.8-7.1,6.3-7.1c3.4,0,5.7,1.8,5.7,6.5
		c0,0.3,0,1-0.1,1.6h-8.7c0.1,2.5,1.1,4,3.7,4c1.3,0,2.3-0.3,3.9-0.9L38.3,36.5z M35.5,29.1c0-2.6-1.2-3.5-2.7-3.5
		c-1.5,0-2.8,1-3,3.5H35.5z"/>
	<path class="st0" d="M53.8,30.6c0-4.5,2.2-7.4,7-7.4c4.7,0,6.6,2.9,6.6,7c0,4.5-2.1,7.5-6.8,7.5C55.6,37.7,53.8,34.7,53.8,30.6z
		 M64.1,30.4c0-3.4-1.2-4.8-3.4-4.8c-2.3,0-3.7,1.4-3.7,4.9s1.2,5,3.5,5C62.9,35.5,64.1,34,64.1,30.4z"/>
	<path class="st0" d="M84.1,30.6c0-4.5,2.2-7.4,7-7.4c4.7,0,6.5,2.9,6.5,7c0,4.5-2.1,7.5-6.8,7.5C85.8,37.7,84.1,34.7,84.1,30.6z
		 M94.4,30.4c0-3.4-1.2-4.8-3.4-4.8c-2.3,0-3.6,1.4-3.6,4.9s1.2,5,3.5,5C93.1,35.5,94.4,34,94.4,30.4z"/>
	<g>
		<path class="st0" d="M125,20.9c1.3,0,2-0.7,2-2c0-1.3-0.8-2-2-2c-1.3,0-2,0.7-2,2C123,20.2,123.7,20.9,125,20.9z"/>
		<polygon class="st0" points="126.6,37.4 126.6,27.9 126.6,23.5 123.5,23.5 123.5,37.4 		"/>
	</g>
	<path class="st0" d="M151.4,37.4l-0.3-1.6l-0.1,0c-1.2,1.1-2.6,1.9-4.7,1.9c-3.4,0-3.8-2.3-3.8-3.8c0-2.7,1.7-4,4.9-4.2l3.4-0.3
		v-1.4c0-1.7-0.3-2.6-2.4-2.6c-1.5,0-2.5,0.1-2.5,2l-2.9-0.3c0-3.4,3.1-3.9,5.4-3.9c3.9,0,5.3,1.1,5.3,4.8v9.4L151.4,37.4z
		 M150.8,31.4l-2.6,0.2c-2,0.2-2.6,0.8-2.6,2c0,1.3,0.6,1.7,1.7,1.7c1.3,0,2.7-0.8,3.5-1.6V31.4z"/>
	<g>
		<path class="st0" d="M57.3,0.3c3.3,0,5.9,2.7,5.9,5.9c0,3.3-2.7,5.9-5.9,5.9c-3.3,0-5.9-2.7-5.9-5.9C51.4,2.9,54,0.3,57.3,0.3"/>
		<path class="st0" d="M32.5,0.3c3.3,0,5.9,2.7,5.9,5.9c0,3.3-2.7,5.9-5.9,5.9c-3.3,0-5.9-2.7-5.9-5.9C26.6,2.9,29.3,0.3,32.5,0.3"
			/>
		<path class="st0" d="M7.8,0.3c3.3,0,5.9,2.7,5.9,5.9c0,3.3-2.7,5.9-5.9,5.9c-3.3,0-5.9-2.7-5.9-5.9C1.9,2.9,4.5,0.3,7.8,0.3"/>
	</g>
	<path class="st0" d="M119.5,37.4l0-9.6l0,0c0-2.8-1-4.6-3.9-4.6c-2,0-3.4,0.8-4.7,1.6c-0.7-1.2-1.9-1.6-3.2-1.6
		c-1.8,0-3.2,0.8-4.6,1.8l-0.1,0l-0.2-1.5h-2.4l0,13.9h3.1V27.2l0,0c0.9-0.7,2-1.4,3.3-1.4c1.6,0,1.7,1.4,1.7,3l0,0v8.6h3.1l0-9l0,0
		c0-0.5,0-1-0.1-1.5c0.8-0.5,2.1-1.1,3.3-1.1c1.5,0,1.7,1.3,1.7,2.8l0,0l0,8.7H119.5z"/>
	<path class="st0" d="M51.4,34.4c-0.9,0.5-2.1,0.8-3.4,0.8c-2.3,0-4-1.2-4-4.8c0-3.5,1.7-4.7,4-4.7c1.3,0,2.6,0.4,3.4,0.8l0.9-2.1
		c-1.1-0.7-2.9-1.2-4.7-1.2c0,0-0.5,0-0.8,0c-4.2,0.3-6.1,3.2-6.1,7.1l0,0c0,0.1,0,0.2,0,0.3c0,4.1,2,7.1,6.7,7.1
		c1.9,0,3.7-0.5,4.8-1.2L51.4,34.4z"/>
	<path class="st0" d="M139.9,34.4c-0.9,0.5-2.1,0.8-3.4,0.8c-2.3,0-4-1.2-4-4.8c0-3.5,1.7-4.7,4-4.7c1.3,0,2.6,0.4,3.4,0.8l0.9-2.1
		c-1.1-0.7-2.9-1.2-4.7-1.2c0,0-0.5,0-0.8,0c-4.2,0.3-6.1,3.2-6.1,7.1l0,0c0,0.1,0,0.2,0,0.3c0,4.1,2,7.1,6.7,7.1
		c1.9,0,3.7-0.5,4.8-1.2L139.9,34.4z"/>
	<g>
		<path class="st0" d="M164,21.6c-0.3-0.2-0.6-0.4-0.8-0.8c-0.2-0.3-0.3-0.7-0.3-1.1s0.1-0.7,0.3-1.1c0.2-0.3,0.4-0.6,0.8-0.8
			c0.3-0.2,0.7-0.3,1-0.3s0.7,0.1,1,0.3c0.3,0.2,0.6,0.4,0.8,0.8c0.2,0.3,0.3,0.7,0.3,1.1s-0.1,0.7-0.3,1.1
			c-0.2,0.3-0.4,0.6-0.8,0.8c-0.3,0.2-0.7,0.3-1,0.3S164.3,21.8,164,21.6z M164.2,18.3c-0.3,0.2-0.5,0.4-0.7,0.6
			c-0.2,0.3-0.2,0.6-0.2,0.9c0,0.3,0.1,0.6,0.2,0.9c0.2,0.3,0.4,0.5,0.7,0.6c0.3,0.2,0.6,0.2,0.9,0.2c0.3,0,0.6-0.1,0.9-0.2
			c0.3-0.2,0.5-0.4,0.7-0.6c0.2-0.3,0.2-0.6,0.2-0.9c0-0.3-0.1-0.6-0.2-0.9c-0.2-0.3-0.4-0.5-0.7-0.6c-0.3-0.2-0.6-0.2-0.9-0.2
			C164.7,18,164.4,18.1,164.2,18.3z M165,20h-0.4V21h-0.3v-2.4h1c0.2,0,0.4,0.1,0.5,0.2s0.2,0.3,0.2,0.5c0,0.2,0,0.3-0.1,0.4
			c-0.1,0.1-0.2,0.2-0.3,0.2c-0.1,0-0.2,0.1-0.2,0.1l0.6,1h-0.4L165,20z M164.6,18.9v0.8h0.7c0.1,0,0.2,0,0.3-0.1
			c0.1-0.1,0.1-0.2,0.1-0.3c0-0.1,0-0.2-0.1-0.3c-0.1-0.1-0.2-0.1-0.3-0.1H164.6z"/>
	</g>
</g>
</svg>
