<svg id="Layer_1" data-name="Layer 1" xmlns="http://www.w3.org/2000/svg" viewBox="0 0 169.04 15.08" width="225" height="23"><defs><style>.cls-1{fill:#231f20;}.cls-2{fill:#4a0d66;}</style></defs><title>pembridge</title><path class="cls-1" d="M1.68,11.7V8.26h5c.53,0,.65.12.65.6v2.23c0,.49-.12.61-.65.61Zm7.2-2.6c0-1.16-.56-1.44-2.13-1.44H0A3.52,3.52,0,0,1,.14,8.82v5.1A3.5,3.5,0,0,1,0,15.08H1.81a3.47,3.47,0,0,1-.14-1.16V12.3H6.75c1.57,0,2.13-.28,2.13-1.44Z"/><path class="cls-1" d="M24.24,7.66l.08.69a15.14,15.14,0,0,0-1.89-.08H18.5v2.8h3.58A18.4,18.4,0,0,0,24,11v.77a18.12,18.12,0,0,0-2-.08H18.5v2.81h3.94a14.37,14.37,0,0,0,1.89-.08l-.08.68H16.82A3.51,3.51,0,0,0,17,13.92V8.82a3.52,3.52,0,0,0-.14-1.16Z"/><path class="cls-1" d="M32.23,15.08A6.91,6.91,0,0,0,32.41,13V9.4a7.23,7.23,0,0,0-.15-1.74h2.13l3.83,6.58L42,7.66h2.1a5.58,5.58,0,0,0-.17,1.58v4.67a3.52,3.52,0,0,0,.14,1.16H42.26a3.52,3.52,0,0,0,.14-1.16V8.48h0l-3.81,6.6H37.08l-3.87-6.6h0V14a3.38,3.38,0,0,0,.12,1.07Z"/><path class="cls-1" d="M79.23,11.48h4.89c.53,0,.65.12.65.6v1.79c0,.49-.12.6-.65.6H79.23Zm-1.54,2.44a3.09,3.09,0,0,1-.15,1.16h6.65c1.57,0,2.13-.28,2.13-1.44V12.29c0-.79-.41-1-1.32-1v0c.91,0,1.32-.2,1.32-1V9.09c0-1.16-.56-1.44-2.13-1.44H77.53a3.1,3.1,0,0,1,.15,1.16Zm1.54-5.66h4.89c.53,0,.65.12.65.6v1.48c0,.49-.12.6-.65.6H79.23Z"/><path class="cls-1" d="M96.33,8.26h4.94c.53,0,.65.12.65.6v1.62c0,.49-.12.6-.65.6H96.33ZM100,11.7l2.05,3.38h1.78a20.67,20.67,0,0,1-2.21-3.37c1.24,0,1.8-.28,1.8-1.44V9.1c0-1.16-.56-1.44-2.13-1.44H94.65a3.49,3.49,0,0,1,.14,1.16v5.1a3.47,3.47,0,0,1-.14,1.16h1.81a3.47,3.47,0,0,1-.14-1.16V11.7Z"/><path class="cls-1" d="M113.7,13.92a3.48,3.48,0,0,0,.14,1.16H112a3.49,3.49,0,0,0,.13-1.16V8.82A3.5,3.5,0,0,0,112,7.66h1.81a3.5,3.5,0,0,0-.14,1.16Z"/><path class="cls-1" d="M124.12,8.26H129c.53,0,.65.12.65.6v5c0,.49-.12.6-.65.6h-4.89Zm-1.54,5.66a3.52,3.52,0,0,1-.14,1.16h6.63c1.57,0,2.13-.28,2.13-1.44V9.1c0-1.16-.56-1.44-2.13-1.44h-6.63a3.53,3.53,0,0,1,.14,1.16Z"/><path class="cls-1" d="M141.05,13.88c0,.48.12.6.65.6H146c.53,0,.65-.12.65-.6V11.26h-2.49a4.31,4.31,0,0,0-1.69.14v-.74h5.82a10.78,10.78,0,0,0-.11,1.16v2.1a4.71,4.71,0,0,0,.11,1.16h-1.38l-.15-.49h0c-.09.42-.18.49-1.16.49h-4.05c-1.62,0-2-.3-2-1.3V9c0-1,.39-1.3,2-1.3h6.33l.08.69a7.81,7.81,0,0,0-2-.16H141.7c-.52,0-.65.12-.65.6Z"/><path class="cls-1" d="M164.08,7.66l.08.69a15.21,15.21,0,0,0-1.89-.08h-3.94v2.8h3.58a18.25,18.25,0,0,0,2-.08v.77a18,18,0,0,0-2-.08h-3.58v2.81h3.94a14.44,14.44,0,0,0,1.89-.08l-.08.68h-7.43a3.45,3.45,0,0,0,.14-1.16V8.82a3.46,3.46,0,0,0-.14-1.16Z"/><rect class="cls-2" x="43.16" width="35.3" height="6.39"/><path class="cls-1" d="M167.42,9.89a1.27,1.27,0,0,1-1.26-1.32,1.26,1.26,0,1,1,2.52,0A1.27,1.27,0,0,1,167.42,9.89Zm0-2.91A1.6,1.6,0,1,0,169,8.57,1.59,1.59,0,0,0,167.42,7ZM167.1,8.7h.29l.47.79h.32l-.51-.8a.47.47,0,0,0,.49-.5c0-.37-.23-.52-.67-.52h-.69V9.48h.3Zm0-.26V7.92h.37c.18,0,.39,0,.39.26s-.21.26-.39.26Z"/></svg>